<?xml version="1.0" encoding="UTF-8"?>
<svg xmlns="http://www.w3.org/2000/svg" xmlns:xlink="http://www.w3.org/1999/xlink" width="854" height="480" viewBox="0 0 854 480">
<defs>
<g>
<g id="glyph-0-0">
<path d="M 1.71875 -1.414062 C 1.71875 -1.832031 1.675781 -2.128906 1.589844 -2.308594 C 1.503906 -2.488281 1.363281 -2.574219 1.171875 -2.574219 C 0.976562 -2.574219 0.835938 -2.484375 0.75 -2.308594 C 0.664062 -2.128906 0.621094 -1.832031 0.621094 -1.414062 C 0.621094 -1 0.664062 -0.703125 0.75 -0.523438 C 0.835938 -0.34375 0.976562 -0.257812 1.171875 -0.257812 C 1.367188 -0.257812 1.503906 -0.34375 1.589844 -0.523438 C 1.675781 -0.703125 1.71875 -1 1.71875 -1.414062 Z M 2.121094 -1.414062 C 2.121094 -0.921875 2.042969 -0.550781 1.886719 -0.308594 C 1.730469 -0.0664062 1.492188 0.0546875 1.171875 0.0546875 C 0.851562 0.0546875 0.613281 -0.0664062 0.457031 -0.308594 C 0.300781 -0.550781 0.222656 -0.917969 0.222656 -1.414062 C 0.222656 -1.910156 0.300781 -2.277344 0.457031 -2.523438 C 0.613281 -2.765625 0.851562 -2.886719 1.171875 -2.886719 C 1.492188 -2.886719 1.730469 -2.765625 1.886719 -2.523438 C 2.042969 -2.28125 2.121094 -1.910156 2.121094 -1.414062 Z "/>
</g>
<g id="glyph-0-1">
<path d="M 2.195312 -1.6875 C 2.121094 -1.746094 2.042969 -1.789062 1.964844 -1.816406 C 1.886719 -1.84375 1.804688 -1.855469 1.710938 -1.855469 C 1.492188 -1.855469 1.328125 -1.789062 1.210938 -1.652344 C 1.097656 -1.515625 1.039062 -1.316406 1.039062 -1.058594 L 1.039062 0 L 0.6875 0 L 0.6875 -2.128906 L 1.039062 -2.128906 L 1.039062 -1.710938 C 1.097656 -1.863281 1.1875 -1.976562 1.308594 -2.058594 C 1.429688 -2.136719 1.570312 -2.179688 1.738281 -2.179688 C 1.824219 -2.179688 1.90625 -2.167969 1.980469 -2.144531 C 2.054688 -2.125 2.125 -2.089844 2.195312 -2.046875 Z "/>
</g>
<g id="glyph-0-2">
<path d="M 1.628906 -1.855469 L 1.628906 -2.957031 L 1.980469 -2.957031 L 1.980469 0 L 1.628906 0 L 1.628906 -0.269531 C 1.570312 -0.164062 1.492188 -0.0820312 1.398438 -0.0273438 C 1.300781 0.0273438 1.1875 0.0546875 1.0625 0.0546875 C 0.804688 0.0546875 0.601562 -0.0429688 0.453125 -0.242188 C 0.308594 -0.441406 0.234375 -0.71875 0.234375 -1.070312 C 0.234375 -1.414062 0.308594 -1.6875 0.457031 -1.882812 C 0.605469 -2.078125 0.804688 -2.179688 1.0625 -2.179688 C 1.191406 -2.179688 1.300781 -2.152344 1.398438 -2.097656 C 1.496094 -2.042969 1.574219 -1.960938 1.628906 -1.855469 Z M 0.601562 -1.0625 C 0.601562 -0.789062 0.644531 -0.585938 0.730469 -0.449219 C 0.816406 -0.308594 0.945312 -0.242188 1.113281 -0.242188 C 1.28125 -0.242188 1.410156 -0.3125 1.496094 -0.449219 C 1.585938 -0.589844 1.628906 -0.792969 1.628906 -1.0625 C 1.628906 -1.332031 1.585938 -1.535156 1.496094 -1.675781 C 1.410156 -1.8125 1.28125 -1.882812 1.113281 -1.882812 C 0.945312 -1.882812 0.816406 -1.8125 0.730469 -1.675781 C 0.644531 -1.539062 0.601562 -1.332031 0.601562 -1.0625 Z "/>
</g>
<g id="glyph-0-3">
<path d="M 2.128906 -1.238281 L 2.128906 -1.066406 L 0.613281 -1.066406 L 0.613281 -1.054688 C 0.601562 -0.765625 0.660156 -0.558594 0.78125 -0.429688 C 0.902344 -0.304688 1.070312 -0.242188 1.292969 -0.242188 C 1.402344 -0.242188 1.519531 -0.257812 1.640625 -0.292969 C 1.761719 -0.328125 1.890625 -0.382812 2.03125 -0.457031 L 2.03125 -0.109375 C 1.898438 -0.0546875 1.769531 -0.0117188 1.644531 0.015625 C 1.523438 0.0429688 1.402344 0.0546875 1.289062 0.0546875 C 0.957031 0.0546875 0.699219 -0.0429688 0.511719 -0.242188 C 0.328125 -0.441406 0.234375 -0.714844 0.234375 -1.0625 C 0.234375 -1.402344 0.324219 -1.671875 0.507812 -1.875 C 0.691406 -2.078125 0.933594 -2.179688 1.238281 -2.179688 C 1.507812 -2.179688 1.722656 -2.085938 1.878906 -1.902344 C 2.035156 -1.71875 2.117188 -1.496094 2.128906 -1.238281 Z M 1.777344 -1.339844 C 1.761719 -1.488281 1.710938 -1.613281 1.617188 -1.722656 C 1.527344 -1.828125 1.394531 -1.882812 1.222656 -1.882812 C 1.054688 -1.882812 0.914062 -1.828125 0.804688 -1.714844 C 0.695312 -1.605469 0.636719 -1.476562 0.625 -1.339844 Z "/>
</g>
</g>
</defs>
<g fill="rgb(51.372549%, 75.686275%, 40.392157%)" fill-opacity="1">
<use xlink:href="#glyph-0-0" x="30" y="23.610352"/>
<use xlink:href="#glyph-0-1" x="32" y="23.610352"/>
<use xlink:href="#glyph-0-2" x="34" y="23.610352"/>
<use xlink:href="#glyph-0-3" x="36" y="23.610352"/>
<use xlink:href="#glyph-0-1" x="38" y="23.610352"/>
</g>
</svg>
